<svg xmlns="http://www.w3.org/2000/svg" width="81.248" height="89.5" viewBox="0 0 81.248 89.5">
  <g id="android-robot-bot" transform="translate(0 0.001)">
    <path id="Path_8081" data-name="Path 8081" d="M66,28.405c0-8.012-4.841-15.048-12.077-18.937l4-6.868a1.654,1.654,0,0,0,.173-1.334A1.745,1.745,0,0,0,57.209.218h0a1.861,1.861,0,0,0-2.463.67l-4.1,7.05a28.692,28.692,0,0,0-20.039,0L26.5.888A1.792,1.792,0,0,0,25.416.065a1.885,1.885,0,0,0-1.378.153h0a1.737,1.737,0,0,0-.864,1.033,1.647,1.647,0,0,0,.161,1.312l4,6.9C20.092,13.358,15.3,20.393,15.3,28.405Zm8.566,0h0a6.858,6.858,0,0,1,4.729,1.867,6.215,6.215,0,0,1,1.955,4.506V57.357a6.215,6.215,0,0,1-1.955,4.506,6.858,6.858,0,0,1-4.729,1.867h0a6.539,6.539,0,0,1-6.692-6.373V34.778A6.539,6.539,0,0,1,74.563,28.405Zm-67.871,0h0a6.539,6.539,0,0,1,6.692,6.373V57.357A6.539,6.539,0,0,1,6.692,63.73h0A6.539,6.539,0,0,1,0,57.372V34.793a6.222,6.222,0,0,1,1.955-4.516,6.866,6.866,0,0,1,4.738-1.872ZM37.836,71.181V83.126A6.539,6.539,0,0,1,31.144,89.5h0a6.53,6.53,0,0,1-6.669-6.373V71.181H21.415A5.978,5.978,0,0,1,15.3,65.354V30.321H66V65.34a5.978,5.978,0,0,1-6.119,5.827H56.819V83.111a6.539,6.539,0,0,1-6.692,6.373h0a6.538,6.538,0,0,1-6.692-6.373V71.181Z" transform="translate(0 0)" fill="#a4c639"/>
    <path id="Path_8082" data-name="Path 8082" d="M39.26,24.09a1.45,1.45,0,1,0-.421,1.032A1.46,1.46,0,0,0,39.26,24.09Z" transform="translate(-8.788 -6.297)" fill="#fff"/>
    <path id="Path_8083" data-name="Path 8083" d="M38,24.09a.15.15,0,0,0,0-.1h0a.116.116,0,0,0-.21.1.14.14,0,0,0,.15.15.18.18,0,0,0,.1,0,.15.15,0,0,0,0-.11Zm1.81-2h0A2.768,2.768,0,0,1,35.89,26h0a2.77,2.77,0,1,1,3.91-3.92Z" transform="translate(-8.692 -6.035)" fill="#fff"/>
    <path id="Path_8084" data-name="Path 8084" d="M69.89,24.09a1.46,1.46,0,1,0-1.46,1.46,1.46,1.46,0,0,0,1.46-1.46Z" transform="translate(-16.194 -6.297)" fill="#fff"/>
    <path id="Path_8085" data-name="Path 8085" d="M68.57,24.09a.15.15,0,0,0,0-.1h0a.116.116,0,0,0-.21.1.14.14,0,0,0,.15.15.18.18,0,0,0,.1,0,.15.15,0,0,0,0-.11Zm1.81-2h0A2.77,2.77,0,0,1,66.46,26h0a2.77,2.77,0,1,1,3.91-3.92Z" transform="translate(-16.271 -6.032)" fill="#fff"/>
  </g>
</svg>
