<svg xmlns="http://www.w3.org/2000/svg" width="74.347" height="91.319" viewBox="0 0 74.347 91.319">
  <path id="apple" d="M121.568,48.493c-.115-11.56,9.429-17.108,9.855-17.383a21.321,21.321,0,0,0-16.7-9.046c-7.111-.718-13.874,4.189-17.487,4.189S88.066,22.172,82.17,22.28A22.352,22.352,0,0,0,63.279,33.729c-8.052,13.97-2.06,34.676,5.789,46C72.9,85.28,77.473,91.512,83.477,91.29c5.78-.227,7.968-3.744,14.959-3.744s8.953,3.745,15.072,3.625c6.222-.115,10.163-5.655,13.972-11.222A50.339,50.339,0,0,0,133.8,66.966c-.138-.062-12.132-4.656-12.253-18.468l.017,0ZM110.075,14.558A20.118,20.118,0,0,0,114.824-.024c-4.589.187-10.153,3.059-13.448,6.918-2.958,3.426-5.541,8.886-4.85,14.13,5.125.4,10.357-2.6,13.544-6.459l.005-.007Z" transform="translate(-59.457 0.024)" fill-rule="evenodd"/>
</svg>
