<svg id="bootstrap-5-logo" xmlns="http://www.w3.org/2000/svg" xmlns:xlink="http://www.w3.org/1999/xlink" width="152.087" height="121.194" viewBox="0 0 152.087 121.194">
  <defs>
    <linearGradient id="linear-gradient" x1="0.148" y1="0.025" x2="1.021" y2="0.895" gradientUnits="objectBoundingBox">
      <stop offset="0" stop-color="#9013fe"/>
      <stop offset="1" stop-color="#6610f2"/>
    </linearGradient>
  </defs>
  <path id="Path_8065" data-name="Path 8065" d="M16.777,15.838C16.492,7.6,22.911,0,31.588,0h88.923c8.677,0,15.1,7.6,14.811,15.838-.276,7.916.08,18.167,2.662,26.529,2.59,8.386,6.954,13.688,14.1,14.368v7.723c-7.15.68-11.513,5.982-14.1,14.368-2.581,8.362-2.938,18.613-2.662,26.529.285,8.24-6.134,15.838-14.811,15.838H31.588c-8.677,0-15.1-7.6-14.811-15.838.276-7.916-.083-18.167-2.662-26.529C11.525,70.441,7.15,65.139,0,64.459V56.736c7.15-.68,11.525-5.982,14.116-14.368,2.578-8.362,2.938-18.613,2.662-26.529Z" fill="url(#linear-gradient)"/>
  <path id="Path_8066" data-name="Path 8066" d="M226.912,141.692c0,11.347-8.466,18.227-22.516,18.227H177.9V95.46h26.36c11.715,0,19.4,6.342,19.4,16.079a14.4,14.4,0,0,1-11.76,14.026v.359c8.971.983,15.01,7.191,15.01,15.767Zm-38.761,10.052V130.526H201.7c9.7,0,14.736,3.573,14.736,10.542s-4.9,10.676-14.139,10.676Zm0-48.109h13.637c7.414,0,11.623,3.306,11.623,9.292,0,6.386-4.9,9.96-13.774,9.96H188.151Z" transform="translate(-125.056 -67.104)" fill="#fff" fill-rule="evenodd"/>
</svg>
