<svg xmlns="http://www.w3.org/2000/svg" width="148.792" height="171.74" viewBox="0 0 148.792 171.74">
  <path id="career" d="M114.2,110.258V92.676h34.577v79.063H24.267v-25.87H54.19V128.064H83.247V110.258ZM29.131,72.4l-2.655-2.152a.266.266,0,0,0-.14,0,.2.2,0,0,0-.14.07L21.654,75.9a.266.266,0,0,0,0,.14.21.21,0,0,0,.084.14l2.6,2.082a.279.279,0,0,0,.154,0,.154.154,0,0,0,.126-.07l4.542-5.59a.182.182,0,0,0,0-.14.2.2,0,0,0-.07-.14ZM21.514,46.513l9.238,7.477,4.3-5.073a1.873,1.873,0,0,1,1.244-.685,1.915,1.915,0,0,1,1.4.391c1.943-2.222,3.871-4.5,5.772-6.737a59.072,59.072,0,0,1,4.193-4.92A24.389,24.389,0,0,1,52.15,33.1a19.916,19.916,0,0,1,5.758-2.572h0a32.006,32.006,0,0,1,7.673-.992h.112c2.124-.112,4.612,0,6.695,0h2.572c10.454,0,15.653,5.115,19.678,9.1h0c.825.811,1.607,1.579,2.334,2.194a7.841,7.841,0,0,0,2.055,1.4h0c.335.112,1.23-.335,2.222-.839h0a20.544,20.544,0,0,1,2.446-1.09c3.494-1.607,7.072-3.55,10.552-4.976a4.934,4.934,0,0,1,2.334-.349,6.583,6.583,0,0,1,2.4.7,7.156,7.156,0,0,1,1.523,1.034,7.673,7.673,0,0,1,1.244,1.4v.07a7.436,7.436,0,0,1,.894,1.719h0a7.393,7.393,0,0,1-.224,5.325,7.352,7.352,0,0,1-1.062,1.971,7.561,7.561,0,0,1-3.438,2.572c-2.614,1.272-5.241,2.572-7.883,3.7a39.218,39.218,0,0,1-6.876,2.46,20.853,20.853,0,0,1-8.2,0h-.252a21.677,21.677,0,0,1-8.47-4.962l-1.4,13.459c1.076.559,2.138,1.048,3.173,1.5,1.272.545,2.488,1.02,3.676,1.481h0c7.575,2.949,13.808,5.395,15.877,16.967.252,1.4.489,4.193.685,7.407.321,4.822.559,10.454.615,12.509h0a.8.8,0,0,1,0,.252.964.964,0,0,1-.922.713h-.154a7.814,7.814,0,0,1-.894.084H96.1c-.587,0-.867,0-1.23-.391a1.4,1.4,0,0,1-.307-1.09v-.559c-.126-2.334-.377-6.247-.629-9.783-.2-2.516-.377-4.78-.531-5.982a10.053,10.053,0,0,0-.252-1.23,6.3,6.3,0,0,0-.447-1.1l-.126-.224c-.419-.769-.8-1.481-1.09-1.593h0c-.545-.224-1.272-.461-2.11-.713s-2.068-.587-3.173-.881-2.4-.6-3.746-.908l-3.187-.713c-.922,3.843-1.663,7.9-2.4,12.159-1.845,10.1-3.8,20.811-7.477,29.35a.978.978,0,0,1-1.216.545,17.972,17.972,0,0,1-3,.2c-2.977,0-7.1,0-8.875-.112h-.391c-.6,0-.908,0-1.244-.489h0a1.4,1.4,0,0,1-.154-1.188l.1-.461c.182-.936.475-2.39.853-4.193l1.565-7.282c1.034-4.794,2.446-11.181,3.815-17.316,1.775-8.022,3.354-15.024,3.9-17.428a14.971,14.971,0,0,1-1.4-1.775,18.544,18.544,0,0,1-1.565-2.474,13,13,0,0,1-1.132-3.117,10.217,10.217,0,0,1-.154-3.466l2.4-18.714a5.59,5.59,0,0,0-2.446.587h0a8.456,8.456,0,0,0-2.068,1.649,29.532,29.532,0,0,0-2.1,2.544h0c-.573.727-1.174,1.509-1.915,2.376-1.8,2.1-3.62,4.277-5.451,6.387a1.873,1.873,0,0,1-.293,1.859l-4.458,5.1,9.21,7.477a2.642,2.642,0,0,1,.95,1.705A2.6,2.6,0,0,1,53.757,76l-4,5.059A58.7,58.7,0,0,1,39.347,79.3a51.712,51.712,0,0,1-9.713-3.648l1.593-1.971a2.11,2.11,0,0,0-.307-2.977l-3.075-2.5h0a2.11,2.11,0,0,0-2.977.307L23.3,70.44a52.326,52.326,0,0,1-5.423-8.553,58.309,58.309,0,0,1-3.9-10.175l3.9-4.794a2.628,2.628,0,0,1,3.69-.391Zm13.739,6.9L33.142,55.9l8.707,6.988L43.47,61.02C41,58.9,37.586,55.849,35.406,53.571l-.154-.168Zm12.131,30.44L36.524,97.246a2.544,2.544,0,0,1-1.761.95,2.641,2.641,0,0,1-1.929-.559L.969,71.838A2.641,2.641,0,0,1,0,70.063a2.558,2.558,0,0,1,.573-1.915L11.535,54.633a60.628,60.628,0,0,0,3.48,8.386A54.018,54.018,0,0,0,21.3,72.8L19.571,74.94a2.11,2.11,0,0,0,.321,2.977l3.075,2.5a2.11,2.11,0,0,0,2.977-.307l1.8-2.222-.084.154A54.241,54.241,0,0,0,38.7,82.236a58.924,58.924,0,0,0,8.679,1.621ZM107.132,104.4ZM73.589.979A12.76,12.76,0,0,1,78.62,0,12.97,12.97,0,0,1,90.654,8.009a12.76,12.76,0,0,1,1.006,4.976,12.97,12.97,0,0,1-8.008,12.033,12.76,12.76,0,0,1-4.976,1.006,13.1,13.1,0,0,1-4.976-.978,12.928,12.928,0,0,1-6.988-6.988,12.76,12.76,0,0,1-1.02-5.017A12.97,12.97,0,0,1,73.645,1.006Z" transform="translate(0.011 0)" fill="#fbf5f5"/>
</svg>
