<svg xmlns="http://www.w3.org/2000/svg" width="106.534" height="85.562" viewBox="0 0 106.534 85.562">
  <path id="content-layout-view" d="M1.752,49.33h103.03a1.767,1.767,0,0,1,1.752,1.752v8.048a1.775,1.775,0,0,1-1.752,1.752H1.752A1.766,1.766,0,0,1,0,59.131V51.082A1.755,1.755,0,0,1,1.752,49.33Zm49.218-24.5h53.818a1.753,1.753,0,0,1,1.746,1.746V34.6a1.758,1.758,0,0,1-1.746,1.746H50.97A1.754,1.754,0,0,1,49.222,34.6V26.573a1.75,1.75,0,0,1,1.748-1.746ZM50.97,0h53.818a1.753,1.753,0,0,1,1.746,1.746V9.773a1.758,1.758,0,0,1-1.746,1.746H50.97a1.754,1.754,0,0,1-1.748-1.746V1.746A1.75,1.75,0,0,1,50.97,0ZM1.746,0H34.6a1.751,1.751,0,0,1,1.746,1.746V34.6A1.751,1.751,0,0,1,34.6,36.346H1.746A1.748,1.748,0,0,1,0,34.6V1.746A1.748,1.748,0,0,1,1.746,0Zm.006,74.01h103.03a1.766,1.766,0,0,1,1.752,1.752v8.05a1.772,1.772,0,0,1-1.752,1.75H1.752A1.765,1.765,0,0,1,0,83.812v-8.05A1.757,1.757,0,0,1,1.752,74.01Z" fill="#f80" fill-rule="evenodd"/>
</svg>
