<svg id="javascript-programming-language" xmlns="http://www.w3.org/2000/svg" width="129.737" height="129.737" viewBox="0 0 129.737 129.737">
  <path id="Path_8067" data-name="Path 8067" d="M0,0H129.737V129.737H0Z" fill="#f7df1e" fill-rule="evenodd"/>
  <path id="Path_8068" data-name="Path 8068" d="M32.31,105.309,42.235,99.3c1.911,3.4,3.653,6.271,7.834,6.271,4,0,6.535-1.563,6.535-7.665V56.446H68.8v41.63c0,12.627-7.4,18.371-18.2,18.371-9.756,0-15.415-5.047-18.287-11.139ZM75.418,104l9.925-5.744c2.618,4.265,6.008,7.4,12.015,7.4,5.047,0,8.277-2.523,8.277-6.008,0-4.181-3.3-5.659-8.879-8.1L93.7,90.243C84.91,86.494,79.072,81.8,79.072,71.872c0-9.143,6.968-16.112,17.854-16.112,7.75,0,13.324,2.7,17.326,9.756l-9.492,6.092c-2.09-3.748-4.35-5.226-7.834-5.226-3.569,0-5.839,2.259-5.839,5.226,0,3.653,2.259,5.142,7.486,7.4l3.051,1.309c10.368,4.445,16.2,8.974,16.2,19.163,0,10.97-8.626,16.977-20.208,16.977-11.308,0-18.624-5.406-22.193-12.458Zm0,0Z" transform="translate(1.803 3.112)" fill-rule="evenodd"/>
</svg>
