<svg id="project-manager" xmlns="http://www.w3.org/2000/svg" width="141.158" height="110.796" viewBox="0 0 141.158 110.796">
  <path id="Path_8088" data-name="Path 8088" d="M57.943,95.357c3.906,11.5,20.241,11.924,23.917,0,4.319,3.894,17.116,4.664,21.872,7.329a12.538,12.538,0,0,1,3.963,3.354,20.312,20.312,0,0,1,2.458,4.756h-80.5a20.311,20.311,0,0,1,2.458-4.756,12.413,12.413,0,0,1,3.963-3.354c4.756-2.665,17.541-3.446,21.872-7.329Zm60.125-42.366h-9.11a4.935,4.935,0,0,0-3.584,1.47,4.872,4.872,0,0,0-1.47,3.584v8.88a5.021,5.021,0,0,0,5.054,5.054h3.906a19.813,19.813,0,0,1-1.091,3.171,8.5,8.5,0,0,1-2.217,2.883,17.885,17.885,0,0,0,5.284-2.3,15.693,15.693,0,0,0,3.986-3.756h3.354a4.962,4.962,0,0,0,3.584-1.47,4.828,4.828,0,0,0,1.47-3.584v-8.88a4.917,4.917,0,0,0-1.47-3.584,4.854,4.854,0,0,0-3.584-1.47h-4.113Zm23.09,10.2v8.88a5.754,5.754,0,0,1-1.735,4.181,5.9,5.9,0,0,1-.781.655,6.108,6.108,0,0,1-.862.517c-.011.011-.034.011-.046.023a5.4,5.4,0,0,1-1.172.391,6.179,6.179,0,0,1-1.31.138h-2.791c.057.172.115.356.184.54.161.494.368.976.574,1.47V80A6.389,6.389,0,0,0,134,81.3a9.7,9.7,0,0,0,1.218,1.3.823.823,0,0,1,.069,1.172.845.845,0,0,1-.827.264,20.922,20.922,0,0,1-2.929-1.011,17.233,17.233,0,0,1-2.608-1.413,16.157,16.157,0,0,1-2.263-1.792,18.172,18.172,0,0,1-1.677-1.827h-2.929a6.513,6.513,0,0,1-1.585-.2,5.736,5.736,0,0,1-1.447-.62.827.827,0,1,1,.862-1.413,4.1,4.1,0,0,0,1.022.437,4.143,4.143,0,0,0,1.149.149H125.4a.827.827,0,0,1,.666.333,15.185,15.185,0,0,0,3.791,3.55,16.161,16.161,0,0,0,2.24,1.229c-.161-.264-.276-.517-.4-.77-.218-.517-.437-1.045-.62-1.6-.184-.528-.345-1.068-.494-1.62a.85.85,0,0,1,.793-1.126h3.894a4.331,4.331,0,0,0,.953-.1,4.537,4.537,0,0,0,.816-.276c.011-.011.023-.011.034-.023a4.018,4.018,0,0,0,.609-.356,3.849,3.849,0,0,0,.574-.494,4.255,4.255,0,0,0,.93-1.367,4.167,4.167,0,0,0,.3-1.631v-8.88a4.386,4.386,0,0,0-.3-1.631,4.078,4.078,0,0,0-.93-1.367,4.255,4.255,0,0,0-1.367-.93,4.167,4.167,0,0,0-1.631-.3h-4.135a.839.839,0,0,1,0-1.677h4.135a5.868,5.868,0,0,1,2.252.437,5.769,5.769,0,0,1,1.907,1.287,5.535,5.535,0,0,1,1.287,1.918,5.661,5.661,0,0,1,.437,2.252h.023ZM17.2,46.49a.669.669,0,0,1-.218-.034.667.667,0,0,1-.666-.666v-1.31H9.868v1.31a.661.661,0,0,1-.6.655.741.741,0,0,1-.23.034H6.605v2.711H19.322V46.478H17.174l.023.011ZM5.985,62.8a1.31,1.31,0,1,1-1.31,1.31,1.3,1.3,0,0,1,1.31-1.31ZM4.469,59.574a.588.588,0,0,1,.976-.655l.322.471,1.275-1.551a.588.588,0,1,1,.908.747L6.192,60.734a.49.49,0,0,1-.138.126.591.591,0,0,1-.816-.161l-.77-1.126Zm0-4.538a.589.589,0,0,1,.161-.816.579.579,0,0,1,.816.161l.322.471L7.042,53.3a.588.588,0,0,1,.908.747L6.192,56.2a.78.78,0,0,1-.138.138.591.591,0,0,1-.816-.161l-.77-1.137ZM18.116,75.151a.7.7,0,0,1-.448.172.318.318,0,0,1-.1-.011H1.47a1.468,1.468,0,0,1-1.045-.437A1.439,1.439,0,0,1,0,73.841V48.362a1.448,1.448,0,0,1,.437-1.045,1.475,1.475,0,0,1,1.045-.437H5.307v-.724a.937.937,0,0,1,.3-.7,1.008,1.008,0,0,1,.7-.3H8.57V44.25a1.059,1.059,0,0,1,.333-.77,1.1,1.1,0,0,1,.77-.322h6.9a1.1,1.1,0,0,1,1.091,1.091v.908h2.045a1.02,1.02,0,0,1,1,1v.724h3.825a1.448,1.448,0,0,1,1.045.437,1.5,1.5,0,0,1,.437,1.045v18.38a.663.663,0,0,1-.2.666l-7.6,7.7a.2.2,0,0,1-.057.046ZM17,73.991c0-8.8-1.114-7.754,7.651-7.754V48.362a.125.125,0,0,0-.046-.1.146.146,0,0,0-.1-.046H20.677v1.333a.971.971,0,0,1-.287.7,1,1,0,0,1-.7.287H6.284a1.02,1.02,0,0,1-.7-.287c-.023-.023-.034-.046-.057-.069a1.012,1.012,0,0,1-.23-.632V48.213H1.459a.125.125,0,0,0-.1.046.171.171,0,0,0-.046.1V73.841a.112.112,0,0,0,.046.1.146.146,0,0,0,.1.046H17Zm-6.215-9.42a.674.674,0,0,1-.666-.666.667.667,0,0,1,.666-.666H17.1a.666.666,0,1,1,0,1.333Zm0-9.5a.666.666,0,0,1,0-1.333h9.73a.666.666,0,0,1,0,1.333Zm0,4.756a.667.667,0,0,1-.666-.666.66.66,0,0,1,.666-.666h9.73a.66.66,0,0,1,.666.666.667.667,0,0,1-.666.666ZM81.423,4.779A16.307,16.307,0,1,0,86.2,16.312,16.261,16.261,0,0,0,81.423,4.779ZM69.614,8.386H67.546a.082.082,0,0,0-.069.034.1.1,0,0,0-.034.069V19.31h10.12a.082.082,0,0,0,.069-.034.1.1,0,0,0,.034-.069V17.139a.082.082,0,0,0-.034-.069.1.1,0,0,0-.069-.034H70.3a.588.588,0,0,1-.586-.586V8.489a.088.088,0,0,0-.023-.057l-.011-.011a.082.082,0,0,0-.069-.034Zm.276-5.721a13.649,13.649,0,1,1-9.649,4,13.6,13.6,0,0,1,9.649-4ZM16,106.6a2.682,2.682,0,1,1-4.894,2.194A62.779,62.779,0,0,1,5.721,87.374a2.689,2.689,0,1,1,5.365-.379,57.606,57.606,0,0,0,1.608,10.029A56.8,56.8,0,0,0,16,106.6ZM30.223,39.563a2.685,2.685,0,0,1-3.584-4,71.763,71.763,0,0,1,8.478-6.513,45.387,45.387,0,0,1,8.2-4.342,2.684,2.684,0,1,1,1.93,5.009,40.171,40.171,0,0,0-7.214,3.837,68.037,68.037,0,0,0-7.811,6.008ZM92.945,29.81a2.684,2.684,0,0,1,2.206-4.894,63.6,63.6,0,0,1,21.884,16.335,2.688,2.688,0,1,1-4.067,3.515,58.262,58.262,0,0,0-9.224-8.558,56.66,56.66,0,0,0-10.8-6.4Zm33.716,60.711a2.682,2.682,0,0,1,5.319.7,62.842,62.842,0,0,1-1.815,8.822,61.6,61.6,0,0,1-3.044,8.455,2.693,2.693,0,1,1-4.928-2.171,57.028,57.028,0,0,0,2.791-7.743,54.615,54.615,0,0,0,1.677-8.064Zm-71.716-19A3.654,3.654,0,0,0,53.083,72a1.477,1.477,0,0,0-.54.62,2.2,2.2,0,0,0-.172.988A8.816,8.816,0,0,0,54.129,77.9l.023.023h0l3.7,5.882a30.967,30.967,0,0,0,4.974,6.525,10.119,10.119,0,0,0,7.088,2.849,10.414,10.414,0,0,0,7.5-2.975,32.925,32.925,0,0,0,5.112-6.973l4.158-6.858c.781-1.769,1.057-2.952.885-3.653-.1-.414-.563-.62-1.344-.655-.161-.011-.333-.011-.505-.011l-.586.034a.991.991,0,0,1-.322-.023A6.345,6.345,0,0,1,83.675,72L85.1,66.283c-10.58,1.666-18.495-6.192-29.684-1.574l.8,6.847a5.8,5.8,0,0,1-1.275-.034Zm32.693-1.333a2.677,2.677,0,0,1,1.953,2.01c.3,1.16-.023,2.814-1.011,5.054h0a1.066,1.066,0,0,1-.057.115l-4.216,6.938a34.205,34.205,0,0,1-5.48,7.421A12.4,12.4,0,0,1,69.9,95.265a12.194,12.194,0,0,1-8.5-3.4,32.95,32.95,0,0,1-5.33-6.95l-3.7-5.882a10.725,10.725,0,0,1-2.1-5.376,4.232,4.232,0,0,1,.368-1.93,3.593,3.593,0,0,1,1.275-1.482,4.106,4.106,0,0,1,.9-.459,82.11,82.11,0,0,1-.172-9.983,13.483,13.483,0,0,1,.459-2.389c.942-3.377,3.32-4.917,6.249-6.789a19.843,19.843,0,0,1,5.238-2.332c1.172-.333-1-4.09.218-4.216,5.87-.6,15.37,4.756,19.471,9.19,2.056,2.217,3.343,3.986,3.619,7.892l-.253,9.029Z" fill="#f80" fill-rule="evenodd"/>
</svg>
