<svg xmlns="http://www.w3.org/2000/svg" width="49.251" height="53" viewBox="0 0 49.251 53">
  <path id="Path_8048" data-name="Path 8048" d="M214.657-1201.472l5.678-5.007a2.286,2.286,0,0,0,.2-3.226l-8.087-9.173a2.285,2.285,0,0,0-3.226-.2l-4.92,4.337a9.816,9.816,0,0,0-2.639,10.914,69.561,69.561,0,0,0,12.745,20.746,69.543,69.543,0,0,0,18.989,15.244,9.811,9.811,0,0,0,11.156-1.251l4.92-4.338a2.285,2.285,0,0,0,.2-3.225l-8.089-9.174a2.286,2.286,0,0,0-3.226-.2l-5.678,5.008a1.919,1.919,0,0,1-2.367.147,54.169,54.169,0,0,1-9.164-8.153,54.049,54.049,0,0,1-6.939-10.114,1.914,1.914,0,0,1,.441-2.328" transform="translate(-201 1219.654)" fill="#ff9721" fill-rule="evenodd"/>
</svg>
