<svg id="php-programming-language" xmlns="http://www.w3.org/2000/svg" width="122.88" height="62.27" viewBox="0 0 122.88 62.27">
  <path id="Path_8074" data-name="Path 8074" d="M61.44,62.27c33.93,0,61.44-13.94,61.44-31.14S95.37,0,61.44,0,0,13.94,0,31.14,27.51,62.27,61.44,62.27ZM93.88,24.99c-.47-.52-1.71-.78-3.73-.78H87.1L85.31,33.4h1.75a12.925,12.925,0,0,0,3.14-.33,5.006,5.006,0,0,0,1.83-.81,4.136,4.136,0,0,0,1.15-1.44,9.515,9.515,0,0,0,.85-2.58,7.627,7.627,0,0,0,.16-2.38,1.544,1.544,0,0,0-.31-.87ZM54.56,6.86h6.81a2.006,2.006,0,0,1,2,2,2.074,2.074,0,0,1-.06.5l-1.14,5.87h3.64a22.147,22.147,0,0,1,5.32.56,8.988,8.988,0,0,1,3.93,1.97,6.473,6.473,0,0,1,1.81,2.88l.71-3.67a2.005,2.005,0,0,1,1.98-1.74h13.2a17.016,17.016,0,0,1,5.82.91,10.389,10.389,0,0,1,4.37,2.91,9.733,9.733,0,0,1,2.24,4.69,15.231,15.231,0,0,1-.13,5.72,18.289,18.289,0,0,1-.69,2.51,15.1,15.1,0,0,1-1.05,2.31,16.036,16.036,0,0,1-1.41,2.1,16.527,16.527,0,0,1-1.77,1.89h0a14.606,14.606,0,0,1-2.49,1.89,13.828,13.828,0,0,1-2.8,1.28,17.134,17.134,0,0,1-3.22.69,30.43,30.43,0,0,1-3.8.23H83.6L82.28,49a2.005,2.005,0,0,1-1.98,1.74H73.44a1.7,1.7,0,0,1-.38-.04,2.009,2.009,0,0,1-1.59-2.34l1.18-6.07a2.074,2.074,0,0,1-.5.06H65.23a2.006,2.006,0,0,1-2-2,2.074,2.074,0,0,1,.06-.5l2.68-13.81a4.869,4.869,0,0,0,.12-1.42c-.01-.1.07-.05.04-.09l-.28-.07a7.289,7.289,0,0,0-1.68-.15h-3.8L57.2,40.74a1.99,1.99,0,0,1-1.96,1.62H48.43a2.006,2.006,0,0,1-2-2,2.074,2.074,0,0,1,.06-.5l.36-1.87-.3.28h0a14.605,14.605,0,0,1-2.49,1.89,13.828,13.828,0,0,1-2.8,1.28,17.134,17.134,0,0,1-3.22.69,30.43,30.43,0,0,1-3.8.23H30L28.71,49a2.005,2.005,0,0,1-1.98,1.74H19.87a1.7,1.7,0,0,1-.38-.04,2.009,2.009,0,0,1-1.59-2.34L24,16.97a2.005,2.005,0,0,1,1.98-1.74h13.2a17.016,17.016,0,0,1,5.82.91,10,10,0,0,1,5.3,4.16L52.6,8.49a2,2,0,0,1,1.96-1.63ZM40.32,24.99c-.47-.52-1.71-.78-3.73-.78H33.53L31.74,33.4h1.75a12.925,12.925,0,0,0,3.14-.33,5.006,5.006,0,0,0,1.83-.81,4.136,4.136,0,0,0,1.15-1.44,9.515,9.515,0,0,0,.85-2.58,7.627,7.627,0,0,0,.16-2.38,1.627,1.627,0,0,0-.3-.87Z" fill="#6884ba" fill-rule="evenodd"/>
  <path id="Path_8075" data-name="Path 8075" d="M90.15,22.21q3.915,0,5.21,1.44c.87.96,1.07,2.61.62,4.96a8.286,8.286,0,0,1-2.74,5.22c-1.35,1.04-3.42,1.56-6.18,1.56H82.89L85.45,22.2h4.7ZM54.56,8.86h6.81l-1.63,8.38h6.07q5.73,0,7.9,2t1.3,6.47L72.16,40.37H65.24l2.71-13.94c.31-1.59.19-2.67-.34-3.24s-1.67-.87-3.42-.87H58.75L55.24,40.37H48.43L54.56,8.86ZM36.59,22.21q3.915,0,5.21,1.44t.62,4.96a8.286,8.286,0,0,1-2.74,5.22c-1.35,1.04-3.42,1.56-6.18,1.56H29.33L31.89,22.2h4.7ZM19.87,48.74h6.86l1.63-8.38h5.88a20.874,20.874,0,0,0,6.4-.82,12.064,12.064,0,0,0,4.57-2.74A13.964,13.964,0,0,0,48,33.3a14.137,14.137,0,0,0,1.52-4.22q1.095-5.595-1.64-8.73c-1.82-2.08-4.72-3.13-8.69-3.13H25.99L19.87,48.74Zm53.56,0h6.86l1.63-8.38H87.8a20.874,20.874,0,0,0,6.4-.82,12.064,12.064,0,0,0,4.57-2.74,13.964,13.964,0,0,0,2.79-3.5,14.137,14.137,0,0,0,1.52-4.22q1.1-5.595-1.64-8.73c-1.82-2.08-4.72-3.13-8.69-3.13H79.55L73.43,48.74Z" fill-rule="evenodd"/>
</svg>
