<svg id="react-js" xmlns="http://www.w3.org/2000/svg" width="122.88" height="109.43" viewBox="0 0 122.88 109.43">
  <path id="Path_8069" data-name="Path 8069" d="M122.88,54.73c0-8.14-10.19-15.85-25.82-20.64,3.61-15.93,2-28.6-5.06-32.66A11,11,0,0,0,86.39.03V5.62a5.9,5.9,0,0,1,2.86.65c3.41,1.95,4.88,9.39,3.73,18.96-.28,2.35-.73,4.83-1.28,7.36a121.679,121.679,0,0,0-15.9-2.73A122.356,122.356,0,0,0,65.38,17.34C73.54,9.74,81.2,5.59,86.41,5.59V0h0c-6.89,0-15.9,4.91-25.02,13.43C52.27,4.96,43.26.1,36.37.1V5.69c5.18,0,12.87,4.13,21.04,11.67a116.914,116.914,0,0,0-10.34,12.5,117.983,117.983,0,0,0-15.93,2.75c-.58-2.5-1-4.93-1.3-7.26-1.18-9.57.28-17.01,3.66-18.99a5.583,5.583,0,0,1,2.88-.65V.13h0a11.185,11.185,0,0,0-5.66,1.4c-7.04,4.06-8.62,16.71-4.98,32.59C10.14,38.92,0,46.61,0,54.73c0,8.14,10.19,15.85,25.82,20.64-3.61,15.93-2,28.6,5.06,32.66a11.033,11.033,0,0,0,5.64,1.4c6.89,0,15.9-4.91,25.02-13.43,9.12,8.47,18.13,13.33,25.02,13.33a11.185,11.185,0,0,0,5.66-1.4c7.04-4.06,8.62-16.71,4.98-32.59,15.54-4.78,25.68-12.5,25.68-20.61Zm-50.02,0A11.45,11.45,0,1,0,61.41,66.18,11.448,11.448,0,0,0,72.86,54.73ZM36.34.1ZM90.27,38.02c-.93,3.23-2.08,6.56-3.38,9.89-1.03-2-2.1-4.01-3.28-6.01-1.15-2-2.38-3.96-3.61-5.86,3.56.53,6.99,1.18,10.27,1.98ZM78.8,64.7c-1.95,3.38-3.96,6.59-6.04,9.57-3.73.33-7.51.5-11.32.5-3.78,0-7.56-.18-11.27-.48-2.08-2.98-4.11-6.16-6.06-9.52q-2.85-4.92-5.21-9.97c1.55-3.36,3.31-6.71,5.18-9.99,1.95-3.38,3.96-6.59,6.04-9.57,3.73-.33,7.51-.5,11.32-.5,3.78,0,7.56.18,11.27.48,2.08,2.98,4.11,6.16,6.06,9.52q2.85,4.92,5.21,9.97c-1.58,3.35-3.3,6.7-5.18,9.99Zm8.09-3.26c1.35,3.36,2.5,6.71,3.46,9.97-3.28.8-6.74,1.48-10.32,2,1.23-1.93,2.45-3.91,3.61-5.94,1.14-2,2.22-4.03,3.25-6.03ZM61.49,88.16a101.365,101.365,0,0,1-6.96-8.01c2.25.1,4.56.18,6.89.18,2.35,0,4.68-.05,6.96-.18a98.98,98.98,0,0,1-6.89,8.01ZM42.86,73.41c-3.56-.53-6.99-1.18-10.27-1.98.93-3.23,2.08-6.56,3.38-9.89,1.03,2,2.1,4.01,3.28,6.01s2.38,3.96,3.61,5.86Zm18.5-52.12a101.363,101.363,0,0,1,6.96,8.01c-2.25-.1-4.56-.18-6.89-.18-2.35,0-4.68.05-6.96.18a98.979,98.979,0,0,1,6.89-8.01ZM42.83,36.04c-1.23,1.93-2.45,3.91-3.61,5.94-1.15,2-2.23,4.01-3.26,6.01-1.35-3.36-2.5-6.71-3.46-9.97,3.29-.78,6.75-1.45,10.33-1.98ZM20.16,67.4c-8.87-3.78-14.6-8.74-14.6-12.67s5.74-8.92,14.6-12.67c2.15-.93,4.51-1.75,6.94-2.53a120.245,120.245,0,0,0,5.64,15.25,118.561,118.561,0,0,0-5.56,15.18c-2.48-.78-4.84-1.63-7.02-2.56Zm13.48,35.79c-3.41-1.95-4.88-9.39-3.73-18.96.28-2.35.73-4.83,1.28-7.36a121.681,121.681,0,0,0,15.9,2.73A122.358,122.358,0,0,0,57.51,92.12c-8.17,7.59-15.83,11.75-21.04,11.75a5.972,5.972,0,0,1-2.83-.68ZM93.05,84.11c1.18,9.57-.28,17.01-3.66,18.99a5.583,5.583,0,0,1-2.88.65c-5.18,0-12.87-4.13-21.04-11.67a116.913,116.913,0,0,0,10.34-12.5,116.4,116.4,0,0,0,15.93-2.76,70.366,70.366,0,0,1,1.31,7.29Zm9.64-16.71c-2.15.93-4.51,1.75-6.94,2.53a120.246,120.246,0,0,0-5.64-15.25A118.56,118.56,0,0,0,95.67,39.5q3.72,1.17,7.04,2.55c8.87,3.78,14.6,8.74,14.6,12.67-.02,3.94-5.75,8.92-14.62,12.68Z" fill="#00d8ff" fill-rule="evenodd"/>
</svg>
