<svg xmlns="http://www.w3.org/2000/svg" width="104.599" height="137.308" viewBox="0 0 104.599 137.308">
  <path id="quality-assurance" d="M100.7,126.2l-13.073-2.347-6.492,11.61c-4.7,5.833-7.688-3.754-9.006-7.1l-12.615-23.8c2.905-1.006,6.414-3.922,10.056-7.185,7.185.145,13.878-1.117,18.806-7.375L102.9,118.03l1.263,2.682c.983,3.5.469,5.81-3.352,5.486Zm-96.855,0,13.073-2.347,6.548,11.61c4.7,5.833,7.688-3.754,9.006-7.1l12.559-23.8c-2.905-1.006-6.414-3.922-10.056-7.185-7.185.145-13.878-1.117-18.806-7.375L1.643,118.03.436,120.678c-.994,3.5-.469,5.81,3.408,5.486ZM78.776,8.94a6.7,6.7,0,0,1,2.235,1.408l6.391,5.9h0a7.363,7.363,0,0,1,1.564,2.112,6.369,6.369,0,0,1,.626,2.6,6.906,6.906,0,0,1-.436,2.648A6.157,6.157,0,0,1,87.7,25.846l-.849.927a38.729,38.729,0,0,1,3.352,7.822h.615a6.57,6.57,0,0,1,2.648.425A6.7,6.7,0,0,1,95.7,36.439h0a6.481,6.481,0,0,1,1.531,2.134,6.883,6.883,0,0,1,.615,2.559l.324,8.794a6.559,6.559,0,0,1-1.743,4.827,6.7,6.7,0,0,1-2.168,1.576,6.928,6.928,0,0,1-2.6.581H90.386a39.308,39.308,0,0,1-3.162,7.822l.458.4.123.123a6.593,6.593,0,0,1,1.486,2.168,6.7,6.7,0,0,1,.581,2.559,6.883,6.883,0,0,1-.391,2.57,7.028,7.028,0,0,1-1.33,2.235l-.078.078-5.944,6.38a6.816,6.816,0,0,1-2.123,1.609,6.593,6.593,0,0,1-2.648.626,7.263,7.263,0,0,1-2.682-.436,6.246,6.246,0,0,1-2.235-1.453l-.927-.916a38.494,38.494,0,0,1-7.7,3.263v.637a6.134,6.134,0,0,1-.436,2.637,6.3,6.3,0,0,1-1.408,2.235h0a6.324,6.324,0,0,1-2.134,1.531,6.838,6.838,0,0,1-2.548.626l-8.794.313a6.57,6.57,0,0,1-4.917-1.754A6.872,6.872,0,0,1,42,87.995a7.151,7.151,0,0,1-.659-2.6V84.106a38.941,38.941,0,0,1-7.822-3.162L33.1,81.4l-.112.123a6.425,6.425,0,0,1-2.168,1.486,7,7,0,0,1-5.118.19,7.285,7.285,0,0,1-2.235-1.33l-.078-.078-6.4-6.023a7.464,7.464,0,0,1-1.564-2.134,6.7,6.7,0,0,1-.626-2.6A7.386,7.386,0,0,1,15.23,68.4a7.218,7.218,0,0,1,1.453-2.235l.905-.972a39.544,39.544,0,0,1-3.263-7.71H13.7a6.135,6.135,0,0,1-2.637-.436,6.5,6.5,0,0,1-2.235-1.408h0A6.6,6.6,0,0,1,7.3,53.5a7.162,7.162,0,0,1-.615-2.559l-.324-8.794A7.23,7.23,0,0,1,6.7,39.511a7.163,7.163,0,0,1,1.408-2.235,6.872,6.872,0,0,1,2.168-1.609,7.151,7.151,0,0,1,2.6-.581h1.274a39.466,39.466,0,0,1,3.173-7.822l-.413-.447a6.257,6.257,0,0,1-1.576-2.168,6.548,6.548,0,0,1-.626-2.6,6.425,6.425,0,0,1,.436-2.637,6.783,6.783,0,0,1,1.408-2.235l5.9-6.425h0a7.252,7.252,0,0,1,2.123-1.609,6.537,6.537,0,0,1,2.6-.615,7.107,7.107,0,0,1,2.637.413,6.157,6.157,0,0,1,2.235,1.453l.994.916a39.242,39.242,0,0,1,7.676-3.263v-.67a6.3,6.3,0,0,1,.436-2.637A6.7,6.7,0,0,1,42.573,2.5h0A6.4,6.4,0,0,1,44.7.95,6.894,6.894,0,0,1,47.243.325L56.026,0a7.3,7.3,0,0,1,2.648.391,6.179,6.179,0,0,1,2.235,1.419,6.548,6.548,0,0,1,1.665,2.157,7.151,7.151,0,0,1,.581,2.6V7.845a39.522,39.522,0,0,1,7.822,3.162l.391-.413a6.224,6.224,0,0,1,2.168-1.564,6.459,6.459,0,0,1,2.6-.626,6.6,6.6,0,0,1,2.637.425ZM42.271,39.109,48.629,45.1,61.389,32.07c1.263-1.285,2.056-2.3,3.609-.7l5.062,5.174c1.665,1.643,1.576,2.6,0,4.134L51.5,58.9c-3.352,3.24-2.726,3.442-6.067.123L33.745,47.4a1.475,1.475,0,0,1,.145-2.235l5.866-6.079c.894-.916,1.6-.86,2.514,0Zm4.358-21.23A28.65,28.65,0,1,1,24.192,51.635,28.65,28.65,0,0,1,46.629,17.879Z" transform="translate(0.002 0.005)" fill="#f80" fill-rule="evenodd"/>
</svg>
