<svg xmlns="http://www.w3.org/2000/svg" width="86.676" height="85.423" viewBox="0 0 86.676 85.423">
  <g id="rocket-launch" transform="translate(-0.01 -0.001)">
    <path id="Path_8077" data-name="Path 8077" d="M10.838,60.837a1.85,1.85,0,0,1,2.272,2.921L3.777,71.01l-.071,9.77,11.463-.642,6.222-9.89a1.847,1.847,0,1,1,3.125,1.968l-6.7,10.645a1.853,1.853,0,0,1-1.5.91l-14.37.811H1.844A1.844,1.844,0,0,1,.01,82.727L.1,70.234a1.857,1.857,0,0,1,.712-1.6l10.024-7.8ZM28.284,38.045c4.656-13.918,10.934-23.787,19.766-30C57.214,1.588,68.995-.853,84.43.261a2.039,2.039,0,0,1,1.9,2c1.5,16.712-1.749,28.563-8.663,37.543C71.012,48.436,61.03,54.277,48.643,59.18V75.5a2.039,2.039,0,0,1-1.129,1.827L34.9,85.119a2.045,2.045,0,0,1-3.1-1.467h0C29.011,62.3,26.041,61.282,8.588,55.243c-2.088-.72-4.338-1.5-5.862-2.039a2.042,2.042,0,0,1-1.249-2.6,2.168,2.168,0,0,1,.339-.614l8.317-11.851a2.032,2.032,0,0,1,1.764-.868h0l16.387.776ZM63.993,22.32a6.233,6.233,0,1,0,1.82,4.4,6.194,6.194,0,0,0-1.82-4.4Z" transform="translate(0 0)" fill="#f80"/>
  </g>
</svg>
