<svg xmlns="http://www.w3.org/2000/svg" width="110.15" height="127.529" viewBox="0 0 110.15 127.529">
  <path id="secure" d="M58.506,2.533a108.313,108.313,0,0,0,24.3,11.9A50.088,50.088,0,0,0,102.615,17.1l6.966-.633.343,7c1.277,25.734-2.875,48.094-11.585,65.731-9.062,18.353-22.994,31.61-40.88,38.336H52.807C35.326,121.144,21.5,108.251,12.322,89.67,3.758,72.23-.633,49.7.073,22.838l.187-6.9,6.862.353a67.112,67.112,0,0,0,22.184-2.273A62.9,62.9,0,0,0,50.783,2.9L54.51,0l4,2.533Zm-3.561,17.5c14.045,8.907,26.731,13.121,37.62,12.146,1.9,38.409-12.3,67.766-37.475,77.244-24.322-8.876-38.7-37.215-37.631-77.856,12.779.675,25.329-2.076,37.485-11.533Zm-7.7,43.921a29.989,29.989,0,0,1,2.741,2.657,108.458,108.458,0,0,1,8.585-11.948c8.554-10.329,6-9.654,17.865-9.654l-1.692,1.827A141.085,141.085,0,0,0,62.493,62.721,170.093,170.093,0,0,0,51.323,81.3l-1.038,1.983-.945-2.014a48.966,48.966,0,0,0-6.322-10.246,34.672,34.672,0,0,0-8.045-7.391c1.547-5.076,8.917-2.471,12.218.322ZM54.9,8.211C72.946,19.63,89.234,25.049,103.227,23.783c2.439,49.4-15.81,85.3-48.136,97.476C23.876,109.85,5.408,75.209,6.779,23.025,23.191,23.876,39.3,20.336,54.9,8.211Z" transform="translate(0.001)" fill="#f80" fill-rule="evenodd"/>
</svg>
