<svg xmlns="http://www.w3.org/2000/svg" width="197.279" height="156.746" viewBox="0 0 197.279 156.746">
  <g id="Layer_x0020_1" transform="translate(-18 -24)">
    <path id="Path_8076" data-name="Path 8076" d="M11.278,0H155.312A11.306,11.306,0,0,1,166.59,11.278V46.264q-1.289-.636-2.609-1.206L163.2,44.7c-1.372-.566-2.763-1.087-4.173-1.549V31.573h-151v85.389a3.1,3.1,0,0,0,3.117,3.117H85.524c.208.547.424,1.09.651,1.634a56.82,56.82,0,0,0,2.593,5.429H11.278A11.313,11.313,0,0,1,0,115.863V11.278A11.306,11.306,0,0,1,11.278,0ZM140.631,54.086A45.067,45.067,0,0,1,179.255,122.4l17.455,19.027a2.157,2.157,0,0,1-.127,3.048l-12.815,11.706a2.154,2.154,0,0,1-3.04-.135l-16.7-18.368a45.074,45.074,0,1,1-23.4-83.594ZM166.062,73.73a36.084,36.084,0,0,0-39.19-7.818c-23.986,9.933-29.5,40.866-11.679,58.675A35.966,35.966,0,1,0,166.062,73.73ZM19.451,42.523H124.267a60.142,60.142,0,0,0-6.192,2.177l.012.023a59.043,59.043,0,0,0-19.1,12.754l-.046.046A59.276,59.276,0,0,0,87.778,73.1H19.451a2.571,2.571,0,0,1-2.562-2.562V45.085a2.569,2.569,0,0,1,2.562-2.562ZM16.888,83.466H83.821q-.578,2.086-1,4.211c-.119.59-.227,1.183-.328,1.776h-65.6V83.466Zm0,16.326h64.8a58.956,58.956,0,0,0,.366,5.988H16.888V99.792ZM144.573,12.677A5.572,5.572,0,1,1,139,18.248,5.57,5.57,0,0,1,144.573,12.677Zm-37.741,0a5.572,5.572,0,1,1-5.572,5.572A5.572,5.572,0,0,1,106.832,12.677Zm18.873,0a5.572,5.572,0,1,1-5.575,5.572A5.569,5.569,0,0,1,125.7,12.677Z" transform="translate(18 24)" fill="#FF8800" fill-rule="evenodd"/>
  </g>
</svg>
