<svg xmlns="http://www.w3.org/2000/svg" width="108.929" height="86.488" viewBox="0 0 108.929 86.488">
  <path id="dashboard-monitoring" d="M108.929,0V72.274H71.649V79.55h10.9v6.938H26.154V79.55H37.823V72.274H0V0ZM12.92,53.492H85.863V56.7H12.92Zm0-8.559H59.464V48.14H12.92Zm71.185-17.9,12.35.043a12.856,12.856,0,0,1-3.683,9,12.615,12.615,0,0,1-1.806,1.511ZM82.84,24.513l-.66-13.559a.481.481,0,0,1,.449-.508c.077,0,.166-.009.266-.011.083,0,.172,0,.266-.006A13.485,13.485,0,0,1,92.6,14.152a14.2,14.2,0,0,1,4.391,9.359.484.484,0,0,1-.44.519L83.346,25a.478.478,0,0,1-.5-.451.206.206,0,0,1,0-.036ZM83.148,11.4l.613,12.595,12.246-.9a13.206,13.206,0,0,0-4.044-8.229A12.552,12.552,0,0,0,83.169,11.4h-.021Zm-1.787,15.05,6.621,11.778a12.979,12.979,0,0,1-6.621,1.823,13.427,13.427,0,0,1-13.244-13.6A13.493,13.493,0,0,1,79.438,12.991l1.923,13.459ZM43.563,11.9l-1.055-1.342a.712.712,0,0,1-.149-.653c.179-.545.821-.491,1.266-.462,1.264.091,4.244.119,4.9.145a.7.7,0,0,1,.674.862c-.132.657-.738,3.823-.955,5.025-.077.417-.2.96-.728,1a.721.721,0,0,1-.6-.3l-1.053-1.345-.489-.621-6.58,4.261a3.136,3.136,0,0,1-6.268-.16c0-.07,0-.14.006-.208L28.89,15.476a3.13,3.13,0,0,1-4.083-.438l-6.1,3.27a2.733,2.733,0,0,1,.017.326A3.133,3.133,0,1,1,17.293,16L24,12.4a3.136,3.136,0,0,1,6.232.5c0,.068,0,.138-.006.208l3.638,2.627a3.132,3.132,0,0,1,3.847.208l5.98-3.874-.132-.17Zm1.442,8.091h4.323a.455.455,0,0,1,.453.453v16.8a.455.455,0,0,1-.453.453H45.006a.456.456,0,0,1-.453-.453v-16.8A.455.455,0,0,1,45.006,19.992ZM34.481,25.749H38.8a.455.455,0,0,1,.453.453v11.04a.455.455,0,0,1-.453.453H34.481a.455.455,0,0,1-.453-.453V26.2a.455.455,0,0,1,.453-.453ZM23.954,19.992h4.325a.453.453,0,0,1,.451.453v16.8a.454.454,0,0,1-.451.453H23.954a.454.454,0,0,1-.451-.453v-16.8A.453.453,0,0,1,23.954,19.992ZM13.427,26.677h4.325a.454.454,0,0,1,.451.453V37.242a.454.454,0,0,1-.451.453H13.427a.454.454,0,0,1-.451-.453V27.13a.453.453,0,0,1,.451-.453ZM3.251,63.013H105.664V3.251H3.251Z" fill="#ffffff" fill-rule="evenodd"/>
</svg>
